# xmcd
#
# Track frame offsets:
#	183
#	18395
#	32398
#	49100
#	67848
#	87843
#	107640
#	123770
#
# Disc length: 1956 seconds
#
# Revision: 1
# Processed by: cddbd v1.4PL0 Copyright (c) Steve Scherf et al.
# Submitted via: audiograbber 1.81.02
#
DISCID=5407a208
DTITLE=이승철 - 이승철 3집
DYEAR=1991
DGENRE=Ballad
TTITLE0=방황
TTITLE1=검은 고양이
TTITLE2=나의 하루
TTITLE3=방황 (Remix)
TTITLE4=넌 또 다른 나
TTITLE5=추억이 같은 이별
TTITLE6=가까이 와봐
TTITLE7=후회
EXTD=
EXTT0=
EXTT1=
EXTT2=
EXTT3=
EXTT4=
EXTT5=
EXTT6=
EXTT7=
PLAYORDER=
